<svg width="48" height="56" fill="none" xmlns="http://www.w3.org/2000/svg"><path d="M10.984 22.238l25.12-11.183" stroke="#82C2EB" stroke-width=".907" stroke-miterlimit="10"/><path d="M35.652 22.1c-6.09-.249-10.843-5.406-10.594-11.497C25.308 4.513 30.466-.24 36.556.01 42.646.26 47.4 5.417 47.15 11.507c-.248 6.09-5.405 10.843-11.498 10.594zm.644-15.75a4.716 4.716 0 00-4.9 4.513 4.713 4.713 0 004.514 4.898 4.71 4.71 0 00.387-9.412z" fill="url(#paint0_linear)"/><path d="M10.712 10.673L.134 27.375a.862.862 0 00.694 1.322l19.754.807a.86.86 0 00.797-1.26l-9.176-17.512a.862.862 0 00-1.491-.06zm27 .447a1.61 1.61 0 11-3.22-.134 1.61 1.61 0 013.22.135z" fill="#76C591"/><path d="M19.322 53.993L8.5 42.25a5.599 5.599 0 01.323-7.911L20.567 23.52a5.599 5.599 0 017.91.323l10.82 11.744a5.599 5.599 0 01-.323 7.91L27.23 54.317a5.6 5.6 0 01-7.908-.324zm-4.86-14.637l8.23 8.933a1.164 1.164 0 001.645.067l8.933-8.23a1.164 1.164 0 00.067-1.643l-8.23-8.934a1.164 1.164 0 00-1.644-.067l-8.933 8.23a1.164 1.164 0 00-.067 1.644z" fill="url(#paint1_linear)"/><path d="M36.104 11.055L23.901 38.918" stroke="#76C591" stroke-width=".907" stroke-miterlimit="10"/><path d="M23.9 40.454a1.536 1.536 0 100-3.072 1.536 1.536 0 000 3.072z" fill="#82C2EB"/><defs><linearGradient id="paint0_linear" x1="25.105" y1="14.261" x2="46.342" y2="8.097" gradientUnits="userSpaceOnUse"><stop stop-color="#B1DCF5"/><stop offset=".999" stop-color="#82C2EB"/></linearGradient><linearGradient id="paint1_linear" x1="27.849" y1="54.757" x2="17.016" y2="11.334" gradientUnits="userSpaceOnUse"><stop offset="0" stop-color="#FEEB8A"/><stop offset=".268" stop-color="#F8C3A8"/><stop offset=".539" stop-color="#F59BB6"/><stop offset=".684" stop-color="#F497B5"/><stop offset=".864" stop-color="#F28BB1"/><stop offset=".999" stop-color="#EF7FAD"/></linearGradient></defs></svg>