<svg width="216" height="23" fill="none" xmlns="http://www.w3.org/2000/svg"><path d="M11.233 18.566H7.764v-4.841H4.157v4.84H.688V6.325h3.469v4.562h3.607V6.324h3.469v12.242zm1.094-6.029c0-1.086.166-2.037.501-2.851.334-.814.771-1.493 1.315-2.037a5.433 5.433 0 011.874-1.233 5.889 5.889 0 012.176-.42c1.738 0 3.11.532 4.12 1.596 1.009 1.063 1.514 2.626 1.514 4.69 0 .2-.008.422-.023.662-.016.241-.03.454-.047.64H15.89c.077.714.41 1.28 1 1.7.589.419 1.38.627 2.374.627.636 0 1.26-.057 1.874-.174.613-.116 1.112-.26 1.5-.431l.467 2.816a4.75 4.75 0 01-.744.28c-.311.092-.657.174-1.037.244-.38.07-.788.128-1.221.173-.434.047-.87.07-1.303.07-1.102 0-2.06-.164-2.873-.489-.814-.325-1.49-.773-2.025-1.337a5.303 5.303 0 01-1.186-2.013 7.867 7.867 0 01-.389-2.513zm8.146-1.326a3.583 3.583 0 00-.151-.86 2.172 2.172 0 00-.395-.745 2.124 2.124 0 00-.675-.536c-.272-.139-.61-.21-1.012-.21-.389 0-.722.067-1 .198-.28.133-.512.307-.698.524-.186.216-.33.468-.431.756a5.06 5.06 0 00-.221.873h4.583zm15.594-4.887v12.242h-3.491c0-.775.008-1.548.023-2.315.014-.77.03-1.479.047-2.13.016-.65.034-1.22.057-1.711.022-.489.035-.849.035-1.082-.45.636-.9 1.28-1.35 1.933-.45.65-.882 1.292-1.293 1.92-.41.628-.8 1.23-1.163 1.804a43.725 43.725 0 00-.966 1.583h-3.049V6.326h3.468a143.088 143.088 0 01-.092 5.645c-.016.427-.022.756-.022.99.93-1.367 1.79-2.592 2.573-3.678a49.895 49.895 0 012.292-2.955h2.931v-.004zm-5.54-1.677c-.497 0-.974-.074-1.432-.221a4.067 4.067 0 01-1.245-.65 3.61 3.61 0 01-.919-1.048 3.323 3.323 0 01-.431-1.407l2.397-.628c.125.59.33 1.009.618 1.258.288.248.623.372 1.012.372.403 0 .748-.112 1.037-.337.286-.225.493-.648.617-1.268l2.375.628a3.33 3.33 0 01-.432 1.409 3.545 3.545 0 01-.908 1.035c-.364.28-.78.493-1.245.64a4.88 4.88 0 01-1.444.217zm18.596 7.798c0 .947-.116 1.808-.35 2.583-.233.775-.574 1.444-1.024 2.002a4.61 4.61 0 01-1.675 1.303c-.667.31-1.436.464-2.305.464-.48 0-.93-.047-1.35-.14a6.505 6.505 0 01-1.21-.396v4.608H37.74V6.739a14.1 14.1 0 011.072-.268c.403-.086.826-.16 1.268-.221a25.44 25.44 0 011.35-.151c.458-.04.895-.058 1.314-.058 1.009 0 1.909.152 2.7.454.791.303 1.458.73 2.002 1.28.542.55.957 1.222 1.246 2.013.288.794.431 1.68.431 2.657zm-3.538.092c0-1.07-.241-1.929-.722-2.571-.48-.644-1.194-.965-2.141-.965-.31 0-.597.012-.861.035-.264.022-.48.05-.652.081v6.26c.216.14.5.256.85.35.35.094.702.14 1.06.14 1.644-.003 2.466-1.111 2.466-3.33zm16.083-.117c0 .961-.139 1.843-.42 2.643-.28.8-.682 1.482-1.21 2.047a5.445 5.445 0 01-1.898 1.315c-.736.31-1.562.466-2.479.466-.9 0-1.717-.155-2.456-.466a5.462 5.462 0 01-1.898-1.315 6.006 6.006 0 01-1.233-2.047c-.294-.8-.442-1.68-.442-2.643 0-.961.152-1.838.455-2.63a5.954 5.954 0 011.257-2.025 5.636 5.636 0 011.908-1.302 6.133 6.133 0 012.41-.467c.883 0 1.695.156 2.431.467.736.31 1.37.744 1.898 1.302a5.903 5.903 0 011.233 2.025c.297.792.444 1.669.444 2.63zm-3.538 0c0-1.071-.213-1.912-.64-2.526-.428-.613-1.035-.92-1.827-.92-.79 0-1.404.307-1.838.92-.434.614-.65 1.455-.65 2.526 0 1.072.216 1.92.65 2.548.433.628 1.047.943 1.838.943.792 0 1.401-.315 1.827-.943.427-.627.64-1.476.64-2.548zm14.52-3.258h-3.91v9.404h-3.468V9.162h-3.91V6.324h11.286v2.838h.002zm11.895 3.283c0 .947-.117 1.808-.35 2.583-.233.775-.574 1.444-1.024 2.002a4.61 4.61 0 01-1.675 1.303c-.667.31-1.436.464-2.305.464-.48 0-.93-.047-1.35-.14a6.506 6.506 0 01-1.21-.396v4.608h-3.47V6.739a14.42 14.42 0 011.072-.268c.403-.086.827-.16 1.268-.221a26.02 26.02 0 011.35-.151 15.55 15.55 0 011.315-.058c1.008 0 1.908.152 2.7.454a5.57 5.57 0 012.002 1.28 5.51 5.51 0 011.245 2.013c.287.794.432 1.68.432 2.657zm-3.538.092c0-1.07-.241-1.929-.722-2.571-.48-.644-1.194-.965-2.141-.965-.311 0-.598.012-.861.035-.264.022-.48.05-.653.081v6.26c.217.14.501.256.851.35.35.094.702.14 1.06.14 1.642-.003 2.466-1.111 2.466-3.33zm4.049 0c0-1.086.166-2.037.501-2.851.334-.814.771-1.493 1.315-2.037a5.433 5.433 0 011.874-1.233 5.889 5.889 0 012.176-.42c1.738 0 3.11.532 4.12 1.596 1.009 1.063 1.514 2.626 1.514 4.69 0 .2-.008.422-.023.662-.016.241-.03.454-.047.64H88.62c.078.714.41 1.28 1 1.7.589.419 1.38.627 2.374.627.636 0 1.26-.057 1.874-.174.613-.116 1.112-.26 1.5-.431l.467 2.816a4.75 4.75 0 01-.744.28c-.311.092-.657.174-1.037.244-.38.07-.788.128-1.221.173-.434.047-.87.07-1.303.07-1.102 0-2.06-.164-2.873-.489-.814-.325-1.49-.773-2.025-1.337a5.303 5.303 0 01-1.186-2.013 7.812 7.812 0 01-.389-2.513zm8.146-1.326a3.583 3.583 0 00-.151-.86 2.172 2.172 0 00-.395-.745 2.123 2.123 0 00-.675-.536c-.272-.139-.61-.21-1.012-.21-.389 0-.722.067-1 .198-.28.133-.512.307-.698.524-.186.216-.33.468-.43.756-.1.287-.173.579-.22.873h4.58zm14.989 7.355h-3.469v-4.841h-3.607v4.84h-3.469V6.325h3.469v4.562h3.607V6.324h3.469v12.242zm6.074-12.57c1.024 0 1.877.117 2.56.35.683.233 1.229.567 1.64 1 .412.436.702.961.874 1.583.17.62.255 1.311.255 2.072v7.215c-.497.108-1.186.237-2.071.385-.884.147-1.955.22-3.211.22-.792 0-1.509-.07-2.154-.21-.644-.14-1.198-.368-1.664-.687a3.124 3.124 0 01-1.072-1.246c-.248-.511-.372-1.141-.372-1.885 0-.714.143-1.32.431-1.816a3.305 3.305 0 011.152-1.187 5.213 5.213 0 011.652-.64 9.204 9.204 0 011.933-.198c.45 0 .851.02 1.198.057.35.039.632.09.851.151v-.325c0-.589-.178-1.063-.536-1.42-.358-.355-.977-.535-1.861-.535-.589 0-1.172.043-1.746.129a7.6 7.6 0 00-1.489.36l-.442-2.794a12.842 12.842 0 011.746-.384c.356-.056.733-.1 1.129-.14a13.91 13.91 0 011.197-.055zm.28 10.148c.341 0 .667-.008.978-.022a6.43 6.43 0 00.744-.07v-2.63a6.493 6.493 0 00-.628-.092 6.843 6.843 0 00-1.687.012c-.288.04-.54.113-.757.221a1.287 1.287 0 00-.511.442c-.125.186-.186.42-.186.698 0 .544.182.918.546 1.129.364.208.863.312 1.501.312zm5.213 2.422a38.692 38.692 0 012.403-3.475 44.926 44.926 0 012.636-3.078 49.572 49.572 0 01-2.671-2.961 57.774 57.774 0 01-2.135-2.728h4.058c.403.57.887 1.229 1.452 1.977.564.749 1.305 1.694 2.219 2.835V6.324h3.374v4.828a55.535 55.535 0 002.258-2.843l1.444-1.985h4.002a29.195 29.195 0 01-2.02 2.728 39.32 39.32 0 01-2.716 2.939 43.601 43.601 0 011.497 1.667c.441.521.859 1.036 1.253 1.55.395.513.769 1.045 1.127 1.597.356.552.728 1.14 1.115 1.76h-3.857a73.788 73.788 0 00-4.103-5.556v5.557h-3.374V13.05a341.5 341.5 0 01-2.258 2.965 46.104 46.104 0 00-1.839 2.549h-3.865v.002z" fill="#010101"/><path d="M138.424 12.537c0-1.086.166-2.037.501-2.851.333-.814.771-1.493 1.315-2.037a5.437 5.437 0 011.873-1.233 5.892 5.892 0 012.176-.42c1.739 0 3.111.532 4.121 1.596 1.009 1.063 1.514 2.626 1.514 4.69 0 .2-.008.422-.023.662-.016.241-.03.454-.047.64h-7.865c.077.714.411 1.28 1 1.7.589.419 1.38.627 2.374.627.636 0 1.26-.057 1.873-.174.614-.116 1.113-.26 1.502-.431l.466 2.816a4.75 4.75 0 01-.745.28c-.31.092-.656.174-1.036.244-.381.07-.788.128-1.221.173-.434.047-.87.07-1.303.07-1.102 0-2.06-.164-2.874-.489-.814-.325-1.488-.773-2.024-1.337a5.291 5.291 0 01-1.186-2.013c-.264-.775-.391-1.613-.391-2.513zm8.146-1.326a3.613 3.613 0 00-.152-.86 2.153 2.153 0 00-.394-.745 2.124 2.124 0 00-.675-.536c-.272-.139-.61-.21-1.013-.21-.388 0-.721.067-1 .198-.28.133-.511.307-.697.524a2.372 2.372 0 00-.432.756c-.1.287-.173.579-.22.873h4.583zm15.827 1.234c0 .947-.117 1.808-.35 2.583-.233.775-.574 1.444-1.024 2.002a4.616 4.616 0 01-1.675 1.303c-.667.31-1.436.464-2.305.464-.481 0-.931-.047-1.35-.14a6.524 6.524 0 01-1.211-.396v4.608h-3.468V6.739a14.2 14.2 0 011.071-.268c.403-.086.827-.16 1.268-.221a26.02 26.02 0 011.35-.151 15.1 15.1 0 011.315-.058c1.008 0 1.908.152 2.7.454.791.303 1.458.73 2.002 1.28.542.55.957 1.222 1.245 2.013.287.794.432 1.68.432 2.657zm-3.538.092c0-1.07-.241-1.929-.722-2.571-.481-.644-1.194-.965-2.141-.965-.311 0-.597.012-.861.035a7.309 7.309 0 00-.653.081v6.26c.217.14.501.256.851.35.35.094.702.14 1.059.14 1.643-.003 2.467-1.111 2.467-3.33zm8.099-1.861a5.34 5.34 0 01.85-.152c.35-.038.749-.057 1.199-.057.714 0 1.384.086 2.012.256a4.832 4.832 0 011.64.779c.467.35.835.791 1.107 1.327.272.536.407 1.16.407 1.874 0 .713-.125 1.331-.372 1.85a3.29 3.29 0 01-1.072 1.28c-.464.334-1.02.582-1.665.745a8.755 8.755 0 01-2.153.244c-1.025 0-1.964-.052-2.816-.152a21.67 21.67 0 01-2.608-.476V6.324h3.469v4.352h.002zm1.722 5.468c.636 0 1.137-.12 1.501-.362.364-.239.546-.632.546-1.176 0-.278-.062-.515-.186-.71a1.36 1.36 0 00-.512-.466 2.343 2.343 0 00-.756-.243 5.69 5.69 0 00-.919-.07c-.233 0-.488.017-.768.048a6.31 6.31 0 00-.628.094v2.793c.186.031.433.056.744.07.311.014.636.022.978.022zm10.728 2.422h-3.468V6.324h3.468v12.242z" fill="#010101"/><path d="M199.103 12.142c0 .947-.117 1.808-.35 2.583-.233.775-.574 1.444-1.024 2.002a4.615 4.615 0 01-1.675 1.303c-.667.31-1.436.464-2.305.464-.481 0-.931-.047-1.35-.139a6.524 6.524 0 01-1.211-.397v4.608h-3.468V6.436c.311-.092.667-.182 1.071-.268.403-.086.827-.16 1.268-.22.442-.062.892-.113 1.35-.152.458-.039.896-.057 1.315-.057 1.009 0 1.908.151 2.7.454.791.302 1.458.73 2.002 1.28.542.55.957 1.22 1.246 2.012.286.796.431 1.68.431 2.657zm-3.538.094c0-1.07-.241-1.928-.722-2.57-.481-.645-1.194-.966-2.141-.966-.311 0-.597.012-.861.035a7.309 7.309 0 00-.653.082v6.26c.217.139.501.255.851.35.35.094.702.139 1.06.139 1.642-.002 2.466-1.11 2.466-3.33z" fill="url(#paint0_linear)"/><path d="M185.585 16.425a2.129 2.129 0 11-4.258 0 2.129 2.129 0 014.258 0z" fill="#76C591"/><path d="M214.055 7.837a6.742 6.742 0 00-2.082-1.164 10.23 10.23 0 00-2.491-.535V2.91h-3.374v3.228c-1.117.124-2.086.36-2.908.71-.823.349-1.498.79-2.025 1.324A5.203 5.203 0 00199.999 10a6.188 6.188 0 00-.385 2.188c0 .806.135 1.569.407 2.28a5.335 5.335 0 001.221 1.886c.542.542 1.223.986 2.037 1.325.814.342 1.757.552 2.829.628v4.26h3.374v-4.26a10.555 10.555 0 002.514-.524 6.422 6.422 0 002.071-1.15 5.443 5.443 0 001.409-1.84c.35-.727.524-1.59.524-2.582 0-.978-.174-1.827-.524-2.549a5.42 5.42 0 00-1.421-1.824zm-7.947 7.54c-.978-.108-1.722-.402-2.234-.883-.511-.48-.769-1.233-.769-2.258 0-1.07.268-1.855.804-2.35.536-.497 1.268-.783 2.199-.86v6.351zm6.108-1.652a2.596 2.596 0 01-.697.965 2.72 2.72 0 01-.965.524 3.668 3.668 0 01-1.072.163V9.023c.356.017.714.078 1.072.186.356.109.679.283.965.524.286.241.52.562.697.965.178.403.268.908.268 1.514 0 .605-.09 1.11-.268 1.513z" fill="url(#paint1_linear)"/><defs><linearGradient id="paint0_linear" x1="193.412" y1="-12.916" x2="193.412" y2="11.113" gradientUnits="userSpaceOnUse"><stop offset="0" stop-color="#FEEB8A"/><stop offset=".268" stop-color="#F8C3A8"/><stop offset=".539" stop-color="#F59BB6"/><stop offset=".684" stop-color="#F497B5"/><stop offset=".864" stop-color="#F28BB1"/><stop offset=".999" stop-color="#EF7FAD"/></linearGradient><linearGradient id="paint1_linear" x1="207.806" y1="-12.916" x2="207.806" y2="11.113" gradientUnits="userSpaceOnUse"><stop offset="0" stop-color="#FEEB8A"/><stop offset=".268" stop-color="#F8C3A8"/><stop offset=".539" stop-color="#F59BB6"/><stop offset=".684" stop-color="#F497B5"/><stop offset=".864" stop-color="#F28BB1"/><stop offset=".999" stop-color="#EF7FAD"/></linearGradient></defs></svg>