<svg width="190" height="67" fill="none" xmlns="http://www.w3.org/2000/svg"><path d="M13.522 22.915h-4.25v-5.938H4.855v5.938H.604V7.905h4.25v5.587h4.419V7.905h4.249v15.01zm1.338-7.394c0-1.328.202-2.496.616-3.495.415-.998.946-1.827 1.615-2.496a6.682 6.682 0 012.295-1.509 7.25 7.25 0 012.666-.51c2.135 0 3.814.649 5.056 1.955 1.233 1.307 1.86 3.219 1.86 5.747 0 .244-.011.52-.032.818-.022.297-.043.553-.053.786h-9.646c.095.871.5 1.572 1.232 2.082.723.51 1.69.776 2.91.776.776 0 1.552-.075 2.295-.213.755-.138 1.36-.318 1.838-.53l.574 3.452c-.223.116-.531.223-.914.34-.382.116-.807.212-1.275.297-.467.085-.966.16-1.497.212-.531.054-1.063.085-1.594.085-1.349 0-2.528-.201-3.527-.594-.998-.404-1.827-.946-2.485-1.636-.659-.69-1.137-1.52-1.456-2.465a9.878 9.878 0 01-.478-3.102zm9.996-1.625a4.954 4.954 0 00-.18-1.052 2.617 2.617 0 00-.489-.913 2.675 2.675 0 00-.829-.659c-.329-.17-.743-.255-1.242-.255a2.94 2.94 0 00-1.233.244 2.6 2.6 0 00-.86.638 3.044 3.044 0 00-.531.924 6.24 6.24 0 00-.276 1.073h5.64zm19.111-5.991v15.01h-4.281c0-.956.01-1.902.032-2.837.021-.945.042-1.816.053-2.613a81.43 81.43 0 01.074-2.092c.032-.595.043-1.042.043-1.328-.553.775-1.105 1.572-1.657 2.368a83.307 83.307 0 00-1.583 2.359c-.5.775-.978 1.508-1.424 2.21a66.34 66.34 0 00-1.19 1.943h-3.739V7.915h4.25c0 .956 0 1.86-.011 2.73-.01.86-.021 1.647-.043 2.359-.02.711-.042 1.317-.053 1.837-.021.52-.032.925-.032 1.211a162.25 162.25 0 013.155-4.504 60.266 60.266 0 012.815-3.622h3.591v-.021zm-6.788-2.061c-.606 0-1.19-.096-1.753-.276a5 5 0 01-1.53-.797 4.37 4.37 0 01-1.126-1.285c-.297-.5-.467-1.084-.53-1.721l2.942-.776c.148.722.404 1.232.754 1.54.35.308.765.457 1.243.457.5 0 .914-.138 1.275-.414.35-.276.605-.797.754-1.551l2.91.765a4.039 4.039 0 01-.53 1.731c-.298.5-.67.925-1.116 1.275-.446.34-.956.606-1.53.786a5.768 5.768 0 01-1.763.266zm22.797 9.56c0 1.158-.138 2.22-.425 3.166-.287.956-.701 1.774-1.254 2.454a5.608 5.608 0 01-2.05 1.593c-.818.383-1.763.574-2.826.574a7.418 7.418 0 01-1.657-.17 8.116 8.116 0 01-1.487-.489v5.652h-4.25V8.404c.383-.117.819-.223 1.318-.33a27.269 27.269 0 013.208-.446 21.502 21.502 0 011.615-.074c1.232 0 2.337.18 3.314.552.967.372 1.785.893 2.454 1.573.67.68 1.18 1.497 1.53 2.464.34.977.51 2.061.51 3.261zm-4.334.117c0-1.317-.298-2.358-.882-3.155-.595-.786-1.466-1.19-2.624-1.19-.382 0-.733.011-1.052.043-.318.032-.584.064-.796.096v7.68c.265.17.616.319 1.04.425.426.117.861.17 1.297.17 2.007.01 3.017-1.35 3.017-4.069zm19.716-.148c0 1.179-.17 2.262-.51 3.24-.34.977-.84 1.816-1.487 2.506a6.782 6.782 0 01-2.327 1.615c-.903.383-1.912.574-3.038.574-1.105 0-2.103-.191-3.006-.574a6.64 6.64 0 01-2.327-1.615c-.648-.69-1.147-1.53-1.508-2.506-.361-.978-.542-2.061-.542-3.24 0-1.18.18-2.253.553-3.23.371-.967.881-1.795 1.54-2.486a6.874 6.874 0 012.337-1.593c.903-.383 1.89-.574 2.953-.574 1.084 0 2.082.191 2.985.574a6.878 6.878 0 012.327 1.593c.647.68 1.147 1.509 1.508 2.486.361.977.542 2.05.542 3.23zm-4.335 0c0-1.318-.265-2.348-.786-3.092-.52-.754-1.274-1.126-2.241-1.126-.967 0-1.72.372-2.252 1.126-.531.754-.797 1.785-.797 3.091 0 1.307.266 2.359.797 3.124.531.765 1.285 1.158 2.252 1.158.967 0 1.72-.383 2.241-1.158.52-.765.787-1.806.787-3.123zM9.464 33.453v11.525h-4.25V33.453H.425v-3.485h13.841v3.485H9.464zm19.366 4.015c0 1.158-.139 2.22-.426 3.166-.286.956-.7 1.774-1.253 2.454a5.608 5.608 0 01-2.05 1.593c-.818.383-1.764.574-2.826.574a7.418 7.418 0 01-1.657-.17 8.12 8.12 0 01-1.487-.489v5.651h-4.25v-19.78c.383-.116.818-.222 1.318-.329.499-.106 1.009-.19 1.55-.276a27.318 27.318 0 011.658-.18 21.502 21.502 0 011.614-.075c1.233 0 2.338.18 3.315.553.967.371 1.785.892 2.454 1.572a6.72 6.72 0 011.53 2.464c.34.988.51 2.082.51 3.272zm-4.335.117c0-1.317-.297-2.358-.882-3.155-.584-.786-1.465-1.18-2.623-1.18-.383 0-.733.011-1.052.043-.319.032-.595.064-.797.096v7.68c.266.17.616.319 1.041.425.425.117.86.17 1.296.17 2.008 0 3.017-1.36 3.017-4.079zm4.961 0c0-1.328.202-2.496.616-3.495.415-.998.946-1.827 1.615-2.496a6.68 6.68 0 012.294-1.509 7.248 7.248 0 012.667-.51c2.135 0 3.813.648 5.056 1.955 1.233 1.306 1.86 3.219 1.86 5.747 0 .244-.011.52-.033.818-.02.297-.042.552-.053.786h-9.645c.095.871.499 1.572 1.232 2.082.722.51 1.689.776 2.91.776.776 0 1.552-.075 2.295-.213.755-.138 1.36-.319 1.838-.531l.574 3.452c-.223.117-.532.223-.914.34a11.35 11.35 0 01-1.275.298c-.467.085-.966.16-1.498.212-.53.053-1.062.085-1.593.085-1.349 0-2.528-.202-3.527-.595-.998-.403-1.827-.945-2.485-1.636-.66-.69-1.137-1.519-1.456-2.464a9.83 9.83 0 01-.478-3.102zm9.986-1.625a4.948 4.948 0 00-.18-1.052 2.615 2.615 0 00-.49-.913 2.676 2.676 0 00-.828-.66c-.33-.17-.744-.254-1.243-.254a2.93 2.93 0 00-1.232.244c-.34.16-.627.372-.86.638a3.046 3.046 0 00-.532.924 6.43 6.43 0 00-.276 1.073h5.64zm18.378 9.018h-4.25V39.04h-4.419v5.938h-4.25v-15.01h4.25v5.599h4.42v-5.599h4.248v15.01zm7.446-15.413c1.253 0 2.305.138 3.134.425.839.286 1.508.69 2.007 1.232.5.531.86 1.179 1.073 1.944.213.765.32 1.604.32 2.539v8.849c-.606.138-1.456.286-2.54.467-1.083.18-2.4.276-3.941.276-.967 0-1.848-.085-2.635-.255a5.892 5.892 0 01-2.039-.839 3.906 3.906 0 01-1.317-1.53c-.308-.626-.457-1.402-.457-2.315 0-.871.18-1.615.531-2.231a4.034 4.034 0 011.413-1.456 6.363 6.363 0 012.029-.786c.765-.159 1.55-.244 2.369-.244.552 0 1.04.021 1.466.074.425.043.775.107 1.04.181v-.404c0-.722-.222-1.306-.658-1.742-.435-.435-1.2-.658-2.284-.658-.722 0-1.434.053-2.135.159-.701.106-1.317.255-1.827.446l-.542-3.42c.244-.075.552-.16.924-.245.372-.085.776-.16 1.211-.223a24.84 24.84 0 011.381-.17c.5-.042.988-.074 1.477-.074zm.35 12.44c.415 0 .818-.012 1.2-.033a7.53 7.53 0 00.914-.085v-3.23a7.402 7.402 0 00-.775-.116 7.571 7.571 0 00-.945-.053c-.404 0-.776.021-1.126.074-.351.043-.66.138-.925.266a1.652 1.652 0 00-.627.542c-.148.223-.223.51-.223.86 0 .67.224 1.126.67 1.381.446.266 1.051.393 1.837.393zM72 44.978a48.93 48.93 0 012.943-4.26 56.63 56.63 0 013.23-3.77 58.028 58.028 0 01-3.272-3.633 71.14 71.14 0 01-2.613-3.347h4.971a66.78 66.78 0 001.785 2.422 185.4 185.4 0 002.72 3.474v-5.896h4.142v5.917a74.323 74.323 0 002.773-3.484c.68-.935 1.275-1.753 1.774-2.433h4.908a36.391 36.391 0 01-2.476 3.347c-.945 1.147-2.06 2.347-3.324 3.6.68.723 1.295 1.403 1.837 2.04a57.809 57.809 0 011.54 1.902c.49.627.946 1.285 1.382 1.954.435.68.892 1.392 1.37 2.157h-4.727a91.44 91.44 0 00-5.025-6.81v6.81h-4.143V38.2a306.233 306.233 0 01-2.772 3.633 51.9 51.9 0 00-2.252 3.123H72v.021z" fill="#fff"/><path d="M94.893 37.585c0-1.328.202-2.496.616-3.495.415-.998.946-1.827 1.615-2.496a6.68 6.68 0 012.295-1.509 7.248 7.248 0 012.666-.51c2.135 0 3.814.648 5.056 1.955 1.233 1.306 1.859 3.219 1.859 5.747 0 .244-.01.52-.031.818-.022.297-.043.552-.054.786H99.27c.096.871.5 1.572 1.232 2.082.722.51 1.689.776 2.911.776.775 0 1.551-.075 2.294-.213.755-.138 1.36-.319 1.838-.531l.574 3.452c-.223.117-.531.223-.914.34-.382.117-.807.213-1.275.298-.467.085-.966.16-1.497.212-.532.053-1.063.085-1.594.085-1.349 0-2.528-.202-3.527-.595-.998-.403-1.827-.945-2.485-1.636-.659-.69-1.137-1.519-1.456-2.464a9.83 9.83 0 01-.478-3.102zm9.986-1.625a4.974 4.974 0 00-.181-1.052 2.598 2.598 0 00-.489-.913 2.676 2.676 0 00-.828-.66c-.329-.17-.744-.254-1.243-.254-.478 0-.882.085-1.232.244-.34.16-.627.372-.861.638a3.054 3.054 0 00-.53.924c-.128.35-.213.712-.277 1.073h5.641zm19.408 1.508c0 1.158-.138 2.22-.425 3.166-.287.956-.701 1.774-1.254 2.454a5.604 5.604 0 01-2.05 1.593c-.818.383-1.763.574-2.825.574a7.426 7.426 0 01-1.658-.17 8.112 8.112 0 01-1.487-.489v5.651h-4.249v-19.78c.382-.116.818-.222 1.317-.329a29.115 29.115 0 011.551-.276 27.332 27.332 0 011.657-.18 21.498 21.498 0 011.615-.075c1.232 0 2.337.18 3.314.553.967.371 1.785.892 2.454 1.572a6.73 6.73 0 011.53 2.464c.329.988.51 2.082.51 3.272zm-4.345.117c0-1.317-.297-2.358-.882-3.155-.595-.786-1.466-1.18-2.624-1.18-.382 0-.733.011-1.051.043-.319.032-.584.064-.797.096v7.68c.266.17.616.319 1.041.425.425.117.861.17 1.296.17 2.008 0 3.017-1.36 3.017-4.079zm9.932-2.284a6.305 6.305 0 011.041-.18 14.48 14.48 0 011.466-.075c.872 0 1.7.106 2.465.308.765.213 1.445.531 2.008.956a4.613 4.613 0 011.359 1.625c.33.66.5 1.424.5 2.295s-.149 1.636-.457 2.273a4.113 4.113 0 01-1.317 1.573c-.574.414-1.254.711-2.04.913-.786.202-1.668.298-2.634.298a31.1 31.1 0 01-3.453-.181 27.459 27.459 0 01-3.197-.584V29.968h4.249v5.333h.01zm2.114 6.703c.776 0 1.392-.149 1.838-.446.446-.297.669-.776.669-1.445 0-.34-.074-.627-.223-.87a1.72 1.72 0 00-.626-.574 2.958 2.958 0 00-.925-.298 7.458 7.458 0 00-1.126-.085c-.286 0-.595.021-.945.053-.34.043-.595.075-.776.117v3.42c.234.043.532.064.914.086.382.042.775.042 1.2.042zm13.152 2.974h-4.25v-15.01h4.25v15.01z" fill="#fff"/><path d="M169.285 37.107c0 1.158-.138 2.22-.425 3.166-.286.956-.701 1.773-1.253 2.453a5.605 5.605 0 01-2.05 1.594c-.818.382-1.764.574-2.826.574a7.422 7.422 0 01-1.657-.17 8.127 8.127 0 01-1.487-.49v5.652h-4.25v-19.78a15.87 15.87 0 011.318-.329 27.245 27.245 0 013.208-.446 21.496 21.496 0 011.614-.074c1.233 0 2.338.18 3.315.552.967.372 1.785.892 2.454 1.572a6.715 6.715 0 011.529 2.465c.33.977.51 2.06.51 3.26zm-4.334.106c0-1.317-.297-2.358-.881-3.155-.585-.786-1.467-1.19-2.624-1.19-.383 0-.733.01-1.052.043-.319.032-.584.063-.797.095v7.68c.266.17.616.32 1.041.426.425.116.861.17 1.296.17 2.008.01 3.017-1.35 3.017-4.069z" fill="url(#paint0_linear)"/><path d="M152.714 42.354a2.612 2.612 0 01-2.614 2.614 2.612 2.612 0 01-2.613-2.614 2.612 2.612 0 012.613-2.613 2.612 2.612 0 012.614 2.613z" fill="#76C591"/><path d="M187.62 31.827a8.274 8.274 0 00-2.549-1.423 12.577 12.577 0 00-3.049-.659v-3.951h-4.143v3.951c-1.37.149-2.56.446-3.569.871s-1.838.967-2.486 1.626a6.402 6.402 0 00-1.445 2.24c-.318.84-.467 1.733-.467 2.688 0 .988.17 1.923.499 2.794.33.872.829 1.647 1.498 2.316.669.67 1.498 1.211 2.497 1.625.998.415 2.156.68 3.463.776v5.226h4.143v-5.226a13.111 13.111 0 003.08-.637 7.871 7.871 0 002.539-1.413c.722-.606 1.296-1.36 1.732-2.252.425-.893.637-1.955.637-3.166 0-1.2-.212-2.241-.637-3.123a6.502 6.502 0 00-1.743-2.263zm-9.741 9.242c-1.2-.138-2.114-.5-2.741-1.083-.626-.585-.945-1.509-.945-2.773 0-1.306.329-2.273.988-2.879.659-.605 1.551-.956 2.698-1.052v7.787zm7.489-2.029c-.223.5-.499.892-.86 1.18-.351.297-.744.51-1.179.637a4.313 4.313 0 01-1.317.202v-7.787a5.81 5.81 0 011.317.223c.435.138.828.35 1.179.637.351.298.637.69.86 1.19.223.5.33 1.116.33 1.86 0 .743-.117 1.37-.33 1.858z" fill="url(#paint1_linear)"/><path d="M1.157 64.567v-6.172h2.082c.489 0 .882.085 1.19.266.308.17.541.404.69.701.149.297.223.627.223.988s-.074.69-.223.988a1.684 1.684 0 01-.68.712c-.308.18-.7.265-1.179.265H1.762v-.658h1.466c.33 0 .595-.054.797-.17a.976.976 0 00.436-.468c.085-.202.138-.414.138-.67a1.54 1.54 0 00-.138-.668.932.932 0 00-.447-.457c-.201-.106-.467-.17-.807-.17H1.89v5.513h-.733zm6.66.106a1.75 1.75 0 01-.796-.17 1.417 1.417 0 01-.574-.488 1.375 1.375 0 01-.212-.765c0-.266.053-.478.159-.648a1.13 1.13 0 01.414-.393c.17-.096.372-.17.585-.213.212-.042.424-.085.637-.116.287-.032.51-.064.69-.085.18-.022.308-.053.383-.096.085-.042.117-.127.117-.244v-.022c0-.297-.085-.53-.245-.69-.159-.16-.403-.244-.733-.244-.34 0-.605.074-.796.223-.192.148-.33.308-.404.478l-.68-.245c.117-.276.287-.499.489-.658a1.83 1.83 0 01.658-.33 2.83 2.83 0 01.712-.095c.149 0 .319.021.51.053s.382.106.563.212c.18.107.33.277.457.489.117.223.18.51.18.882v3.049H9.22v-.627h-.032a1.022 1.022 0 01-.245.319 1.559 1.559 0 01-.446.297c-.18.096-.414.127-.68.127zm.107-.637c.276 0 .52-.053.711-.17a1.118 1.118 0 00.585-.977v-.648a.503.503 0 01-.202.095 2.894 2.894 0 01-.35.075c-.128.021-.256.042-.383.053-.128.01-.223.032-.298.042a2.74 2.74 0 00-.52.117.974.974 0 00-.383.234.607.607 0 00-.148.425c0 .244.095.435.276.563.18.127.425.191.712.191zm3.027-.648h.754c.022.213.107.372.287.478.17.106.404.16.68.16.287 0 .531-.064.733-.181.202-.117.308-.308.308-.574a.717.717 0 00-.436-.67 1.146 1.146 0 00-.488-.095h-.797v-.637h.797c.287 0 .489-.064.627-.191a.619.619 0 00.201-.478.63.63 0 00-.223-.5c-.148-.127-.35-.19-.626-.19-.277 0-.5.063-.68.18a.58.58 0 00-.287.467h-.744c.011-.244.085-.467.234-.658.149-.192.34-.34.595-.457a2.14 2.14 0 01.86-.17c.33 0 .606.053.85.17.245.117.425.265.563.457a1.1 1.1 0 01.202.658.915.915 0 01-.223.638c-.149.17-.33.276-.552.34v.042c.18.01.329.064.457.17.127.106.233.234.307.393.075.16.107.34.107.531 0 .276-.075.531-.223.733a1.388 1.388 0 01-.617.478 2.21 2.21 0 01-.902.17 2.33 2.33 0 01-.882-.16 1.494 1.494 0 01-.616-.445c-.18-.18-.255-.404-.266-.659zm4.483 1.179v-4.631h1.89c.5 0 .893.117 1.19.34.298.223.436.52.436.892 0 .276-.085.5-.255.648-.17.148-.382.255-.637.308a1.291 1.291 0 01.903.574c.106.17.16.371.16.616 0 .233-.065.446-.181.637-.117.191-.298.33-.52.446-.224.117-.49.16-.808.16h-2.178v.01zm.68-2.687h1.221c.192 0 .351-.032.49-.085a.661.661 0 00.318-.234.593.593 0 00.106-.35.53.53 0 00-.244-.457c-.16-.107-.383-.17-.67-.17h-1.221v1.296zm0 2.04h1.508c.245 0 .436-.054.574-.17a.597.597 0 00.212-.479c0-.244-.074-.425-.212-.563-.138-.138-.33-.202-.574-.202h-1.508v1.413zm4.801-.404l2.231-3.58h.818v4.631h-.712v-3.58l-2.22 3.58h-.828v-4.631h.711v3.58zm4.345 1.051v-4.631h1.891c.5 0 .892.117 1.19.34.297.223.435.52.435.892 0 .276-.085.5-.255.648-.17.148-.382.255-.637.308a1.291 1.291 0 01.903.574c.106.17.16.371.16.616 0 .233-.064.446-.181.637-.117.191-.298.33-.52.446-.224.117-.49.16-.808.16H25.26v.01zm.68-2.687h1.222c.19 0 .35-.032.488-.085a.661.661 0 00.32-.234.593.593 0 00.105-.35.53.53 0 00-.244-.457c-.16-.107-.383-.17-.67-.17h-1.22v1.296zm0 2.04h1.509c.244 0 .435-.054.573-.17a.597.597 0 00.213-.479c0-.244-.075-.425-.213-.563-.138-.138-.33-.202-.573-.202H25.94v1.413zm5.45.753c-.298 0-.563-.053-.797-.17a1.417 1.417 0 01-.574-.488 1.375 1.375 0 01-.212-.765c0-.266.053-.478.16-.648a1.12 1.12 0 01.413-.393c.17-.096.372-.17.585-.213.212-.042.425-.085.637-.116.287-.032.51-.064.69-.085.181-.022.309-.053.383-.096.085-.042.117-.127.117-.244v-.022c0-.297-.085-.53-.245-.69-.159-.16-.403-.244-.732-.244-.34 0-.606.074-.797.223-.191.148-.33.308-.404.478l-.68-.245c.117-.276.287-.499.489-.658.202-.16.425-.266.659-.33.244-.063.478-.095.711-.095.149 0 .319.021.51.053s.383.106.563.212c.18.107.33.277.457.489.117.223.18.51.18.882v3.049h-.711v-.627h-.032a1.024 1.024 0 01-.244.319 1.559 1.559 0 01-.447.297c-.18.096-.414.127-.68.127zm.106-.637c.276 0 .52-.053.712-.17a1.118 1.118 0 00.584-.977v-.648a.503.503 0 01-.202.095 2.897 2.897 0 01-.35.075c-.128.021-.256.042-.383.053-.127.01-.223.032-.297.042a2.688 2.688 0 00-.52.117.974.974 0 00-.383.234.607.607 0 00-.149.425c0 .244.095.435.276.563.18.127.436.191.712.191zm3.697-4.1v4.631h-.712v-4.631h.712zm1.837 2.029v.669h-2.443v-.67h2.443zm1.424 2.698c-.414 0-.786-.096-1.094-.298a2.02 2.02 0 01-.733-.839c-.181-.361-.266-.775-.266-1.253 0-.478.085-.903.266-1.265.18-.36.425-.637.733-.839.308-.201.68-.297 1.094-.297.414 0 .786.096 1.094.297.319.202.563.478.733.84.18.36.266.775.266 1.264 0 .478-.085.892-.266 1.253-.18.361-.425.637-.733.84-.308.201-.67.297-1.094.297zm0-.638c.319 0 .574-.085.786-.244a1.47 1.47 0 00.457-.637c.095-.266.148-.553.148-.86 0-.309-.053-.596-.148-.861a1.442 1.442 0 00-.457-.648c-.202-.17-.467-.244-.786-.244a1.26 1.26 0 00-.786.244c-.202.16-.361.382-.457.648a2.523 2.523 0 00-.149.86c0 .308.053.595.149.86.096.266.255.479.457.638.212.16.467.244.786.244zm3.261-4.089h.712v3.973h1.753v-3.973h.711v3.973h1.753v-3.973h.712v4.631h-5.63v-4.631h-.011zm6.32 3.973l-.084 1.986h-.733v-1.328h-.606v-.658h1.424zm1.743-.393l2.23-3.58h.819v4.631h-.712v-3.58l-2.22 3.58h-.829v-4.631h.712v3.58zm6.299 1.147c-.446 0-.828-.096-1.147-.298a2.006 2.006 0 01-.744-.828 2.89 2.89 0 01-.265-1.243c0-.467.085-.892.265-1.254.17-.36.415-.648.733-.85a1.97 1.97 0 011.094-.307c.245 0 .479.042.712.116a1.792 1.792 0 011.094 1.105c.117.298.17.659.17 1.094v.298H54.42v-.616h2.847c0-.266-.053-.5-.16-.702a1.296 1.296 0 00-.435-.488 1.26 1.26 0 00-.67-.18 1.27 1.27 0 00-.732.212 1.474 1.474 0 00-.478.541 1.64 1.64 0 00-.17.712v.414c0 .351.064.648.18.882.117.245.287.425.51.553.224.127.468.19.755.19.19 0 .36-.031.51-.084a1.07 1.07 0 00.392-.245c.107-.106.192-.244.255-.403l.691.191a1.576 1.576 0 01-.361.616 1.79 1.79 0 01-.638.414 2.13 2.13 0 01-.839.16zm6.098-1.147l2.23-3.58h.819v4.631h-.712v-3.58l-2.22 3.58h-.829v-4.631h.712v3.58zm7.213-3.58v.669h-2.146v3.962h-.712v-4.631h2.858zm1.041 6.374v-6.364h.69v.733h.085c.053-.085.128-.18.223-.308.096-.127.223-.233.404-.34.18-.095.414-.148.712-.148.393 0 .733.095 1.03.297.298.191.531.467.701.828.17.362.255.776.255 1.265 0 .488-.085.913-.255 1.274-.17.361-.403.638-.69.829a1.852 1.852 0 01-1.02.297c-.297 0-.531-.053-.712-.148a1.228 1.228 0 01-.414-.34 4.737 4.737 0 01-.223-.319h-.064v2.443h-.722zm.69-4.059c0 .35.053.659.149.925.096.265.255.478.446.626.202.149.436.223.722.223.298 0 .542-.074.744-.233.202-.16.35-.372.457-.638a2.62 2.62 0 00.149-.892c0-.33-.053-.616-.15-.882a1.44 1.44 0 00-.445-.627c-.202-.159-.446-.233-.755-.233-.286 0-.53.074-.733.223-.201.149-.35.35-.446.605a2.602 2.602 0 00-.138.903zm4.77 4.037a1.47 1.47 0 01-.319-.032 1.614 1.614 0 01-.19-.053l.18-.627c.255.064.478.064.648 0 .17-.074.318-.276.446-.626l.138-.362-1.71-4.652h.775l1.275 3.686h.053l1.275-3.686.775.01-1.976 5.29a1.91 1.91 0 01-.329.585 1.32 1.32 0 01-.457.35c-.18.085-.372.117-.584.117zm4.271-6.352h.711v3.973h1.753v-3.973h.712v3.973h1.752v-3.973h.712v4.631h-5.63v-4.631h-.01zm6.936 4.631v-4.631h.712v2.018h.467l1.668-2.018h.914l-1.87 2.23 1.89 2.401h-.913l-1.519-1.954h-.637v1.954h-.712zm5.269-1.051l2.23-3.58h.819v4.631h-.712v-3.58l-2.22 3.58h-.829v-4.631h.712v3.58zm6.246.393h.383c.095-.096.18-.202.244-.32a2.66 2.66 0 00.18-.403c.054-.16.096-.35.128-.574.032-.223.064-.499.096-.828l.16-1.838h2.942v3.973h.711v1.987h-.711v-1.328h-3.42v1.328h-.713v-1.997zm1.19 0h2.231v-3.304h-1.572l-.117 1.168c-.053.49-.117.903-.191 1.275-.064.35-.18.637-.35.86zm4.186.658v-.658h.17a.712.712 0 00.35-.085c.096-.054.17-.15.223-.298.053-.149.106-.34.138-.584.032-.244.053-.574.064-.956l.085-2.05h3.091v4.631h-.712v-3.962h-1.699l-.075 1.646a7.99 7.99 0 01-.106.999 2.38 2.38 0 01-.234.722c-.106.191-.244.34-.414.446-.17.107-.382.15-.637.15h-.244zm5.109 0l1.317-2.305h.776l-1.317 2.305h-.776zm3.091 0v-3.983h-1.232c-.276 0-.499.063-.658.19-.16.128-.234.309-.234.532a.67.67 0 00.212.52c.138.128.34.192.595.192h1.498v.669h-1.498c-.308 0-.584-.053-.807-.17a1.14 1.14 0 01-.521-.478c-.127-.202-.18-.446-.18-.733s.063-.531.191-.733c.127-.202.308-.361.552-.478.245-.106.532-.17.861-.17h1.901v4.632h-.68v.01zm3.867-.658h.383c.095-.096.18-.202.244-.32.064-.116.127-.254.18-.403.054-.16.096-.35.128-.574.032-.223.064-.499.096-.828l.159-1.838h2.942v3.973h.712v1.987h-.712v-1.328h-3.42v1.328h-.712v-1.997zm1.201 0h2.23v-3.304h-1.572l-.117 1.168c-.053.49-.116.903-.191 1.275-.074.35-.191.637-.35.86zm6.533.754c-.447 0-.829-.096-1.148-.298a2.01 2.01 0 01-.743-.828 2.888 2.888 0 01-.266-1.243c0-.467.085-.892.266-1.254.17-.36.414-.648.733-.85.308-.201.68-.307 1.094-.307.244 0 .478.042.712.116a1.792 1.792 0 011.094 1.105c.117.298.17.659.17 1.094v.298h-3.569v-.616h2.846c0-.266-.053-.5-.159-.702a1.297 1.297 0 00-.435-.488 1.266 1.266 0 00-.67-.18c-.286 0-.531.074-.733.212a1.473 1.473 0 00-.478.541 1.64 1.64 0 00-.17.712v.414c0 .351.064.648.181.882.117.245.287.425.51.553.223.127.467.19.754.19.191 0 .361-.031.51-.084.149-.053.287-.138.393-.245.106-.106.191-.244.255-.403l.69.191a1.57 1.57 0 01-.361.616 1.79 1.79 0 01-.637.414 2.1 2.1 0 01-.839.16zm2.57-4.058v-.67h3.761v.67H128.6v3.962h-.712v-3.962h-1.53zm6.502 4.058c-.447 0-.829-.096-1.148-.298a2.01 2.01 0 01-.743-.828 2.888 2.888 0 01-.266-1.243c0-.467.085-.892.266-1.254.17-.36.414-.648.733-.85.308-.201.68-.307 1.094-.307.244 0 .478.042.712.116a1.792 1.792 0 011.094 1.105c.117.298.17.659.17 1.094v.298h-3.57v-.616h2.847c0-.266-.053-.5-.159-.702a1.291 1.291 0 00-.436-.488 1.26 1.26 0 00-.669-.18 1.27 1.27 0 00-.733.212 1.473 1.473 0 00-.478.541 1.64 1.64 0 00-.17.712v.414c0 .351.064.648.181.882.117.245.287.425.51.553.223.127.467.19.754.19.191 0 .361-.031.51-.084.149-.053.287-.138.393-.245.106-.106.191-.244.255-.403l.69.191a1.57 1.57 0 01-.361.616 1.79 1.79 0 01-.637.414c-.255.107-.531.16-.839.16zm3.707-1.147l2.231-3.58h.818v4.631h-.712v-3.58l-2.22 3.58h-.829v-4.631h.712v3.58zm1.763-5.12h.659c0 .329-.117.594-.34.796-.223.202-.531.308-.913.308-.383 0-.68-.106-.903-.308a1.06 1.06 0 01-.34-.797h.658c0 .16.043.298.128.415.085.116.233.18.446.18.212 0 .361-.064.457-.18a.587.587 0 00.148-.415zm5.694 5.12l2.231-3.58h.818v4.631h-.712v-3.58l-2.22 3.58h-.828v-4.631h.711v3.58zm6.746 1.051v-4.631h1.891c.499 0 .892.117 1.19.34.297.223.435.52.435.892 0 .276-.085.5-.255.648-.17.148-.382.255-.637.308a1.287 1.287 0 01.903.574c.106.17.159.371.159.616 0 .233-.064.446-.181.637-.117.191-.297.33-.52.446-.223.117-.489.16-.808.16h-2.177v.01zm.669-2.687h1.222c.191 0 .35-.032.488-.085a.595.595 0 00.425-.584.53.53 0 00-.244-.457c-.159-.107-.382-.17-.669-.17h-1.222v1.296zm0 2.04h1.508c.245 0 .436-.054.574-.17a.598.598 0 00.213-.479c0-.244-.075-.425-.213-.563-.138-.138-.329-.202-.574-.202h-1.508v1.413zm3.803-.532h.754c.021.213.106.372.287.478.17.106.404.16.68.16.287 0 .531-.064.733-.181.202-.117.308-.308.308-.574a.717.717 0 00-.435-.67 1.151 1.151 0 00-.489-.095h-.797v-.637h.797c.287 0 .489-.064.627-.191a.618.618 0 00.201-.478.63.63 0 00-.223-.5c-.148-.127-.35-.19-.626-.19-.277 0-.5.063-.68.18a.58.58 0 00-.287.467h-.744a1.13 1.13 0 01.234-.658c.149-.192.34-.34.595-.457.244-.106.531-.17.86-.17.33 0 .606.053.85.17.244.117.425.265.563.457a1.1 1.1 0 01.202.658.913.913 0 01-.223.638 1.11 1.11 0 01-.552.34v.042a.75.75 0 01.456.17 1.118 1.118 0 01.415.924c0 .276-.075.531-.224.733a1.384 1.384 0 01-.616.478c-.265.117-.563.17-.903.17-.329 0-.616-.053-.881-.16a1.488 1.488 0 01-.616-.445.896.896 0 01-.266-.659zm4.483 2.922v-6.364h.69v.733h.085c.054-.085.128-.18.223-.308.096-.127.224-.233.404-.34.181-.095.414-.148.712-.148.393 0 .733.095 1.03.297.298.191.531.467.701.828.17.362.255.776.255 1.265 0 .488-.085.913-.255 1.274-.17.361-.403.638-.69.829a1.85 1.85 0 01-1.02.297c-.297 0-.531-.053-.712-.148a1.237 1.237 0 01-.414-.34 4.93 4.93 0 01-.223-.319h-.064v2.443h-.722zm.701-4.059c0 .35.053.659.149.925.095.265.255.478.446.626.202.149.435.223.722.223.298 0 .542-.074.744-.233.202-.16.35-.372.457-.638.095-.265.148-.563.148-.892 0-.33-.053-.616-.148-.882a1.445 1.445 0 00-.446-.627c-.202-.159-.447-.233-.755-.233a1.2 1.2 0 00-.733.223c-.201.149-.35.35-.446.605a2.617 2.617 0 00-.138.903zm6.353 2.412c-.415 0-.786-.096-1.095-.298a2.02 2.02 0 01-.733-.839c-.18-.361-.265-.775-.265-1.253 0-.478.085-.903.265-1.265a2.11 2.11 0 01.733-.839c.309-.201.68-.297 1.095-.297.414 0 .786.096 1.094.297.308.202.563.478.733.84.18.36.265.775.265 1.264 0 .478-.085.892-.265 1.253a2.1 2.1 0 01-.733.84c-.308.201-.68.297-1.094.297zm0-.638c.318 0 .573-.085.786-.244.201-.16.35-.382.456-.637.096-.266.149-.553.149-.86a2.51 2.51 0 00-.149-.861 1.442 1.442 0 00-.456-.648c-.202-.17-.468-.244-.786-.244a1.26 1.26 0 00-.787.244c-.201.16-.35.382-.456.648a2.514 2.514 0 00-.149.86c0 .308.053.595.149.86.095.266.255.479.456.638.202.16.468.244.787.244zm5.067.638a2.05 2.05 0 01-1.126-.308 2.03 2.03 0 01-.723-.85 2.871 2.871 0 01-.255-1.232c0-.468.085-.882.266-1.243.17-.361.414-.648.733-.85a1.97 1.97 0 011.094-.308c.329 0 .616.064.882.18.265.117.478.287.637.51.159.224.266.468.308.755h-.712a1.05 1.05 0 00-.361-.563c-.191-.16-.435-.245-.754-.245-.276 0-.52.075-.733.213-.212.148-.372.35-.489.605a2.24 2.24 0 00-.17.914c0 .36.054.669.17.935.117.265.277.467.478.616.213.148.457.223.733.223.181 0 .351-.032.5-.096.148-.063.276-.16.382-.276a.998.998 0 00.223-.435h.712a1.61 1.61 0 01-.297.732 1.6 1.6 0 01-.627.52c-.234.139-.531.203-.871.203zm2.443-.096v-.658h.17a.71.71 0 00.35-.085c.096-.054.17-.15.224-.298.053-.149.106-.34.138-.584.031-.244.053-.574.063-.956l.085-2.05h3.092v4.631h-.712v-3.962h-1.7l-.074 1.646a7.99 7.99 0 01-.106.999 2.436 2.436 0 01-.234.722c-.106.191-.244.34-.414.446-.17.107-.383.15-.638.15h-.244zm6.034-2.953h1.328c.541 0 .956.138 1.242.414.287.276.436.627.436 1.052 0 .276-.064.531-.191.754a1.462 1.462 0 01-.563.542c-.255.138-.553.202-.914.202h-1.944v-4.632h.712v3.973h1.232c.276 0 .51-.074.691-.223a.706.706 0 00.265-.573.733.733 0 00-.265-.595c-.181-.16-.415-.234-.691-.234h-1.328v-.68h-.01zm3.739 2.953v-4.631h.712v4.631h-.712zm2.539-4.631l1.105 1.89 1.104-1.89h.818l-1.497 2.315 1.497 2.316h-.818l-1.104-1.795-1.105 1.795h-.818l1.466-2.316-1.466-2.315h.818z" fill="#fff"/><defs><linearGradient id="paint0_linear" x1="162.309" y1="6.379" x2="162.309" y2="35.84" gradientUnits="userSpaceOnUse"><stop offset="0" stop-color="#FEEB8A"/><stop offset=".268" stop-color="#F8C3A8"/><stop offset=".539" stop-color="#F59BB6"/><stop offset=".684" stop-color="#F497B5"/><stop offset=".864" stop-color="#F28BB1"/><stop offset=".999" stop-color="#EF7FAD"/></linearGradient><linearGradient id="paint1_linear" x1="179.957" y1="6.379" x2="179.957" y2="35.84" gradientUnits="userSpaceOnUse"><stop offset="0" stop-color="#FEEB8A"/><stop offset=".268" stop-color="#F8C3A8"/><stop offset=".539" stop-color="#F59BB6"/><stop offset=".684" stop-color="#F497B5"/><stop offset=".864" stop-color="#F28BB1"/><stop offset=".999" stop-color="#EF7FAD"/></linearGradient></defs></svg>